<svg xmlns="http://www.w3.org/2000/svg" viewBox="0 0 64 64">
  <rect width="64" height="64" fill="#0A0A0A"/>
  <g fill="#2b2b2b">
    <rect x="6" y="42" width="8" height="6"/>
    <rect x="14" y="48" width="6" height="6"/>
    <rect x="50" y="42" width="8" height="6"/>
    <rect x="44" y="48" width="6" height="6"/>
    <rect x="20" y="52" width="6" height="6"/>
    <rect x="38" y="52" width="6" height="6"/>
  </g>
  <g fill="#FF6B00">
    <rect x="14" y="20" width="8" height="8"/>
    <rect x="22" y="16" width="8" height="8"/>
    <rect x="30" y="16" width="8" height="8"/>
    <rect x="38" y="16" width="8" height="8"/>
    <rect x="46" y="20" width="8" height="8"/>
    <rect x="10" y="28" width="12" height="10"/>
    <rect x="22" y="24" width="8" height="14"/>
    <rect x="30" y="24" width="8" height="14"/>
    <rect x="38" y="24" width="8" height="14"/>
    <rect x="46" y="28" width="8" height="10"/>
    <rect x="18" y="38" width="28" height="8"/>
  </g>
  <g fill="#0A0A0A">
    <rect x="24" y="22" width="4" height="4"/>
    <rect x="36" y="22" width="4" height="4"/>
    <rect x="28" y="34" width="8" height="4"/>
  </g>
</svg>
